<svg xmlns="http://www.w3.org/2000/svg" viewBox="0 0 1010 194" width="1010" height="194" role="img" aria-label="gtm outbound system flow">
<defs>
<marker id="a" viewBox="0 0 8 8" refX="7" refY="4" markerWidth="7" markerHeight="7" orient="auto"><path d="M0.5 0.8 L7 4 L0.5 7.2" fill="none" stroke="#484F58" stroke-width="1.3" stroke-linecap="round" stroke-linejoin="round"/></marker>
<marker id="r" viewBox="0 0 8 8" refX="7" refY="4" markerWidth="7" markerHeight="7" orient="auto"><path d="M0.5 0.8 L7 4 L0.5 7.2" fill="none" stroke="#4A9ECE" stroke-width="1.3" stroke-linecap="round" stroke-linejoin="round" opacity=".55"/></marker>
<style>
.nd{fill:#161B22;stroke:#30363D;stroke-width:1.5}
.gh{fill:#0D1117;stroke:#30363D;stroke-width:1.5;stroke-dasharray:4 4}
.gt{fill:#161B22;stroke:#4A9ECE;stroke-width:1.5}
.bg{fill:rgba(74,158,206,.16)}
.nm{font:600 12.5px Inter,-apple-system,"Segoe UI",sans-serif;fill:#E6EDF3;letter-spacing:-.1px}
.mt{font:600 12.5px Inter,-apple-system,"Segoe UI",sans-serif;fill:#8B949E;letter-spacing:-.1px}
.no{font:700 11px Inter,-apple-system,"Segoe UI",sans-serif;fill:#4A9ECE}
.ln{stroke:#30363D;stroke-width:1.5;fill:none}
.rt{stroke:#4A9ECE;stroke-width:1.5;fill:none;opacity:.5;stroke-dasharray:5 5}
</style>
</defs>
<path class="ln" d="M215 100 H267" marker-end="url(#a)"/>
<path class="ln" d="M475 100 H527" marker-end="url(#a)"/>
<path class="ln" d="M735 100 H765"/>
<path class="ln" d="M765 42 V158"/>
<path class="ln" d="M765 42 H787" marker-end="url(#a)"/>
<path class="ln" d="M765 100 H787" marker-end="url(#a)"/>
<path class="ln" d="M765 158 H787" marker-end="url(#a)"/>
<g><rect class="nd" x="15" y="79" width="200" height="42" rx="9"/><rect class="bg" x="28" y="88" width="24" height="24" rx="6.5"/><text class="no" x="40" y="104" text-anchor="middle">35</text><text class="nm" x="62" y="104">GTM Orchestrator</text></g>
<g><rect class="nd" x="275" y="79" width="200" height="42" rx="9"/><rect class="bg" x="288" y="88" width="24" height="24" rx="6.5"/><text class="no" x="300" y="104" text-anchor="middle">36</text><text class="nm" x="322" y="104">Signal + Enrichment</text></g>
<g><rect class="nd" x="535" y="79" width="200" height="42" rx="9"/><rect class="bg" x="548" y="88" width="24" height="24" rx="6.5"/><text class="no" x="560" y="104" text-anchor="middle">37</text><text class="nm" x="582" y="104">ICP Scorer</text></g>
<g><rect class="gh" x="795" y="21" width="200" height="42" rx="9"/><text class="mt" x="813" y="46">Outreach</text></g>
<g><rect class="gh" x="795" y="79" width="200" height="42" rx="9"/><text class="mt" x="813" y="104">Retarget</text></g>
<g><rect class="gh" x="795" y="137" width="200" height="42" rx="9"/><text class="mt" x="813" y="162">Monitor</text></g>
</svg>
